<svg xmlns="http://www.w3.org/2000/svg" width = "100%" height="100%" viewBox ="0 0 597 418">
<style>
.c0{ fill: rgb(255,255,255); stroke: rgb(255,255,255);}
.c1{ fill: rgb(204,0,0); stroke: rgb(204,0,0);}
.c2{ fill: rgb(207,24,24); stroke: rgb(207,24,24);}
.c3{ fill: rgb(212,40,40); stroke: rgb(212,40,40);}
.c4{ fill: rgb(217,77,77); stroke: rgb(217,77,77);}
.c5{ fill: rgb(227,127,127); stroke: rgb(227,127,127);}
.c6{ fill: rgb(238,180,180); stroke: rgb(238,180,180);}
.c7{ fill: rgb(245,214,214); stroke: rgb(245,214,214);}
.c8{ fill: rgb(250,234,234); stroke: rgb(250,234,234);}
.c9{ fill: rgb(0,0,51); stroke: rgb(0,0,51);}
.c10{ fill: rgb(28,28,72); stroke: rgb(28,28,72);}
.c11{ fill: rgb(46,46,87); stroke: rgb(46,46,87);}
.c12{ fill: rgb(61,61,99); stroke: rgb(61,61,99);}
.c13{ fill: rgb(77,77,113); stroke: rgb(77,77,113);}
.c14{ fill: rgb(109,109,136); stroke: rgb(109,109,136);}
.c15{ fill: rgb(142,142,165); stroke: rgb(142,142,165);}
.c16{ fill: rgb(157,157,173); stroke: rgb(157,157,173);}
.c17{ fill: rgb(176,176,190); stroke: rgb(176,176,190);}
.c18{ fill: rgb(199,199,211); stroke: rgb(199,199,211);}
.c19{ fill: rgb(28,0,44); stroke: rgb(28,0,44);}
.c20{ fill: rgb(71,0,33); stroke: rgb(71,0,33);}
.c21{ fill: rgb(102,47,73); stroke: rgb(102,47,73);}
.c22{ fill: rgb(114,66,89); stroke: rgb(114,66,89);}
.c23{ fill: rgb(151,123,142); stroke: rgb(151,123,142);}
.c24{ fill: rgb(189,162,174); stroke: rgb(189,162,174);}
</style>
<g transform="scale(0.1 0.1)" stroke-width="10">
<path d="M 5, 0c 1437,0 2873,0 4310,0c 397,0 793,0 1190,0c 355,0 458,-2 460,0c 9,9 0,121 0,350c 0,310 0,620 0,930c 0,713 0,1427 0,2140c 0,566 0,753 -5,755c -37,12 -301,0 -360,0c -263,0 -527,0 -790,0c -830,0 -1660,0 -2490,0c -560,0 -1120,0 -1680,0c -300,0 -633,7 -640,0c -10,-10 0,-234 0,-320c 0,-280 0,-560 0,-840c 0,-1003 0,-2007 0,-3010z" class="c0"/>
<path d="M 1845, 1820c -2,2 -3,3 -5,5z" class="c18"/>
<path d="M 1845, 1830c -2,2 -3,3 -5,5z" class="c14"/>
<path d="M 1845, 1840c -2,2 -3,3 -5,5z" class="c11"/>
<path d="M 1845, 1850c 8,-16 10,-50 25,-60c 7,-5 28,-5 35,-10c 3,-2 2,-8 5,-10c 13,-8 25,7 35,10c 6,2 14,-4 20,0c 9,6 35,42 40,50c 4,6 0,13 0,20c 0,17 -1,41 -10,55c -12,18 -70,46 -95,30c -3,-2 -2,-8 -5,-10c -13,-9 -35,-15 -45,-30c -6,-9 1,-29 -5,-40z" class="c9"/>
<path d="M 1845, 1860c -2,2 -3,3 -5,5z" class="c10"/>
<path d="M 1845, 1870c -2,2 -3,3 -5,5z" class="c13"/>
<path d="M 1845, 1880c -2,2 -3,3 -5,5z" class="c15"/>
<path d="M 1845, 1890c -2,2 -3,3 -5,5z" class="c8"/>
<path d="M 1855, 1800c -2,2 -3,3 -5,5z" class="c18"/>
<path d="M 1855, 1810c -2,2 -3,3 -5,5z" class="c11"/>
<path d="M 1855, 1900c -2,2 -3,3 -5,5z" class="c15"/>
<path d="M 1865, 1790c -2,2 -3,3 -5,5z" class="c17"/>
<path d="M 1865, 1910c -2,2 -3,3 -5,5z" class="c13"/>
<path d="M 1875, 1780c -2,2 -3,3 -5,5z" class="c18"/>
<path d="M 1875, 1920c -2,2 -3,3 -5,5z" class="c14"/>
<path d="M 1885, 1770c -2,2 -3,3 -5,5z" class="c8"/>
<path d="M 1885, 1780c -2,2 -3,3 -5,5z" class="c11"/>
<path d="M 1885, 1930c -2,2 -3,3 -5,5z" class="c17"/>
<path d="M 1895, 1770c -2,2 -3,3 -5,5z" class="c17"/>
<path d="M 1895, 1930c -2,2 -3,3 -5,5z" class="c12"/>
<path d="M 1905, 1770c -2,2 -3,3 -5,5z" class="c13"/>
<path d="M 1905, 1940c -2,2 -3,3 -5,5z" class="c7"/>
<path d="M 1915, 1940c -2,2 -3,3 -5,5z" class="c17"/>
<path d="M 1925, 1760c 23,0 1,5 -5,5z" class="c8"/>
<path d="M 1925, 1940c -2,2 -3,3 -5,5z" class="c15"/>
<path d="M 1935, 1940c -2,2 -3,3 -5,5z" class="c16"/>
<path d="M 1945, 1770c -2,2 -3,3 -5,5z" class="c10"/>
<path d="M 1945, 1940c -2,2 -3,3 -5,5z" class="c18"/>
<path d="M 1955, 1770c -2,2 -3,3 -5,5z" class="c14"/>
<path d="M 1955, 1940c -2,2 -3,3 -5,5z" class="c8"/>
<path d="M 1965, 1770c 23,0 1,5 -5,5z" class="c17"/>
<path d="M 1965, 1930c -2,2 -3,3 -5,5z" class="c11"/>
<path d="M 1975, 1760c -2,2 -3,3 -5,5z" class="c7"/>
<path d="M 1975, 1780c -2,2 -3,3 -5,5z" class="c13"/>
<path d="M 1975, 1930c 0,6 -5,28 -5,5z" class="c18"/>
<path d="M 1975, 1950c 23,0 1,5 -5,5z" class="c7"/>
<path d="M 1985, 1740c -2,2 -3,3 -5,5z" class="c8"/>
<path d="M 1985, 1750c -2,2 -3,3 -5,5z" class="c18"/>
<path d="M 1985, 1760c -2,2 -3,3 -5,5z" class="c8"/>
<path d="M 1985, 1780c 18,36 31,23 -5,5z" class="c8"/>
<path d="M 1985, 1790c -2,2 -3,3 -5,5z" class="c10"/>
<path d="M 1985, 1920c 6,-13 13,-13 -5,5z" class="c16"/>
<path d="M 1985, 1960c -2,2 -3,3 -5,5z" class="c17"/>
<path d="M 1995, 1720c -2,2 -3,3 -5,5z" class="c8"/>
<path d="M 1995, 1730c -2,2 -3,3 -5,5z" class="c17"/>
<path d="M 1995, 1740c -2,2 -3,3 -5,5z" class="c7"/>
<path d="M 1995, 1800c -2,2 -3,3 -5,5z" class="c11"/>
<path d="M 1995, 1970c 0,6 -5,28 -5,5z" class="c18"/>
<path d="M 2005, 1710c 0,6 -5,28 -5,5z" class="c18"/>
<path d="M 2005, 1810c -2,2 -3,3 -5,5z" class="c15"/>
<path d="M 2005, 1820c -2,2 -3,3 -5,5z" class="c10"/>
<path d="M 2005, 1890c -2,2 -3,3 -5,5z" class="c13"/>
<path d="M 2005, 1900c -2,2 -3,3 -5,5z" class="c18"/>
<path d="M 2005, 1980c -2,2 -3,3 -5,5z" class="c8"/>
<path d="M 2005, 1990c -2,2 -3,3 -5,5z" class="c17"/>
<path d="M 2005, 2000c -2,2 -3,3 -5,5z" class="c8"/>
<path d="M 2015, 1690c -2,2 -3,3 -5,5z" class="c18"/>
<path d="M 2015, 1700c -2,2 -3,3 -5,5z" class="c17"/>
<path d="M 2015, 1820c -2,2 -3,3 -5,5z" class="c8"/>
<path d="M 2015, 1830c -2,2 -3,3 -5,5z" class="c18"/>
<path d="M 2015, 1840c -2,2 -3,3 -5,5z" class="c15"/>
<path d="M 2015, 1850c 0,6 -5,28 -5,5z" class="c14"/>
<path d="M 2015, 1870c -2,2 -3,3 -5,5z" class="c17"/>
<path d="M 2015, 1880c -2,2 -3,3 -5,5z" class="c7"/>
<path d="M 2015, 2000c 0,6 -5,28 -5,5z" class="c18"/>
<path d="M 2025, 1670c -2,2 -3,3 -5,5z" class="c8"/>
<path d="M 2025, 1680c -2,2 -3,3 -5,5z" class="c17"/>
<path d="M 2025, 1690c -2,2 -3,3 -5,5z" class="c8"/>
<path d="M 2025, 2010c -2,2 -3,3 -5,5z" class="c8"/>
<path d="M 2025, 2020c -2,2 -3,3 -5,5z" class="c17"/>
<path d="M 2025, 2030c -2,2 -3,3 -5,5z" class="c8"/>
<path d="M 2035, 1650c -2,2 -3,3 -5,5z" class="c8"/>
<path d="M 2035, 1660c -2,2 -3,3 -5,5z" class="c17"/>
<path d="M 2035, 1670c -2,2 -3,3 -5,5z" class="c7"/>
<path d="M 2035, 2030c -2,2 -3,3 -5,5z" class="c7"/>
<path d="M 2035, 2040c -2,2 -3,3 -5,5z" class="c18"/>
<path d="M 2045, 1640c 0,6 -5,28 -5,5z" class="c18"/>
<path d="M 2045, 1780c -2,2 -3,3 -5,5z" class="c8"/>
<path d="M 2045, 2050c -2,2 -3,3 -5,5z" class="c17"/>
<path d="M 2045, 2060c -2,2 -3,3 -5,5z" class="c18"/>
<path d="M 2055, 1620c -2,2 -3,3 -5,5z" class="c18"/>
<path d="M 2055, 1630c -2,2 -3,3 -5,5z" class="c17"/>
<path d="M 2055, 1780c 150,0 300,0 450,0c 26,0 178,8 190,0c 3,-2 2,-8 5,-10c 12,-8 173,0 200,0c 160,0 320,0 480,0c 23,0 35,-3 55,-10c 9,-3 62,-5 70,0c 3,2 1,9 5,10c 9,3 9,-8 15,-10c 8,-3 22,0 30,0c 12,0 50,7 60,0c 3,-2 4,-6 5,-10c 5,-18 -38,-23 -50,-35c -15,-15 -51,-31 -60,-40c -12,-12 1,-7 -10,-15c -6,-4 -14,-1 -20,-5c -5,-3 -5,-12 -10,-15c -6,-4 -14,-1 -20,-5c -9,-6 -16,-24 -25,-30c -8,-5 -52,-23 -55,-30c -3,-5 9,-9 10,-15c 8,-32 0,-77 0,-110c 0,-31 -9,-121 0,-130c 4,-4 9,9 15,10c 2,0 37,18 40,20c 9,6 16,24 25,30c 12,8 108,63 115,70c 12,12 -1,7 10,15c 6,4 14,1 20,5c 3,2 5,12 10,15c 6,4 14,1 20,5c 3,2 7,13 10,15c 6,4 14,1 20,5c 5,3 5,12 10,15c 6,4 14,1 20,5c 20,14 35,36 55,50c 13,8 75,40 85,50c 12,12 -1,7 10,15c 6,4 14,1 20,5c 3,2 7,13 10,15c 6,4 14,1 20,5c 3,2 7,13 10,15c 6,4 14,1 20,5c 3,2 7,13 10,15c 6,4 14,1 20,5c 9,6 16,24 25,30c 16,11 40,15 55,30c 12,12 -1,7 10,15c 6,4 14,1 20,5c 3,2 7,13 10,15c 9,6 44,22 40,35c -2,5 -89,67 -100,75c -6,4 -14,1 -20,5c -5,3 -7,13 -10,15c -6,4 -14,1 -20,5c -5,3 -7,13 -10,15c -6,4 -14,1 -20,5c -10,7 -12,21 -25,25c -5,2 -144,90 -160,100c -9,6 -16,24 -25,30c -6,4 -14,1 -20,5c -14,10 -25,25 -40,35c -6,4 -14,1 -20,5c -5,3 -5,12 -10,15c -6,4 -14,1 -20,5c -10,7 -12,21 -25,25c -5,2 -144,90 -160,100c -6,4 -42,48 -50,40c -4,-4 9,-9 10,-15c 3,-12 7,-70 0,-80c -2,-3 -8,-2 -10,-5c -7,-10 -4,-78 0,-90c 2,-6 13,-6 10,-15c -1,-4 -8,-2 -10,-5c -6,-8 8,-18 10,-25c 6,-23 -18,-22 0,-40c 10,-10 72,-42 85,-50c 9,-6 16,-24 25,-30c 6,-4 14,-1 20,-5c 14,-10 25,-25 40,-35c 9,-6 64,-28 60,-40c -6,-19 -205,-5 -230,-5c -56,0 -299,-7 -310,0c -3,2 -2,8 -5,10c -12,8 -173,0 -200,0c -163,0 -327,0 -490,0c -17,0 -21,5 -35,10c -30,10 -142,0 -180,0c -18,0 -99,11 -110,0c -5,-5 6,-118 -5,-140z" class="c9"/>
<path d="M 2055, 1790c -2,2 -3,3 -5,5z" class="c10"/>
<path d="M 2055, 1800c 0,30 0,60 0,90c 0,5 -1,19 -5,15c -10,-10 0,-84 0,-100z" class="c12"/>
<path d="M 2055, 1910c 0,6 -5,28 -5,5z" class="c11"/>
<path d="M 2055, 1930c -2,2 -3,3 -5,5z" class="c18"/>
<path d="M 2055, 2060c -2,2 -3,3 -5,5z" class="c8"/>
<path d="M 2055, 2070c -2,2 -3,3 -5,5z" class="c17"/>
<path d="M 2055, 2080c -2,2 -3,3 -5,5z" class="c8"/>
<path d="M 2065, 1600c -2,2 -3,3 -5,5z" class="c8"/>
<path d="M 2065, 1610c -2,2 -3,3 -5,5z" class="c17"/>
<path d="M 2065, 1620c -2,2 -3,3 -5,5z" class="c8"/>
<path d="M 2065, 1930c 13,0 72,-8 80,0c 4,4 -10,5 -15,5c -23,0 -47,0 -70,0z" class="c17"/>
<path d="M 2065, 2080c 0,14 23,39 15,35c -6,-3 -20,-25 -20,-30z" class="c18"/>
<path d="M 2075, 1580c -2,2 -3,3 -5,5z" class="c8"/>
<path d="M 2075, 1590c -2,2 -3,3 -5,5z" class="c17"/>
<path d="M 2075, 1600c -2,2 -3,3 -5,5z" class="c7"/>
<path d="M 2075, 2090c -2,2 -3,3 -5,5z" class="c8"/>
<path d="M 2075, 2110c -2,2 -3,3 -5,5z" class="c8"/>
<path d="M 2085, 1570c 0,6 -5,28 -5,5z" class="c18"/>
<path d="M 2085, 1770c 14,0 81,-9 90,0c 1,1 -20,5 -95,5z" class="c8"/>
<path d="M 2085, 2120c -2,2 -3,3 -5,5z" class="c17"/>
<path d="M 2095, 1550c -2,2 -3,3 -5,5z" class="c18"/>
<path d="M 2095, 1560c -2,2 -3,3 -5,5z" class="c17"/>
<path d="M 2095, 1570c -2,2 -3,3 -5,5z" class="c8"/>
<path d="M 2095, 2130c -2,2 -3,3 -5,5z" class="c17"/>
<path d="M 2095, 2140c -2,2 -3,3 -5,5z" class="c7"/>
<path d="M 2105, 1530c -2,2 -3,3 -5,5z" class="c8"/>
<path d="M 2105, 1540c -2,2 -3,3 -5,5z" class="c16"/>
<path d="M 2105, 1550c -2,2 -3,3 -5,5z" class="c8"/>
<path d="M 2105, 2140c -2,2 -3,3 -5,5z" class="c8"/>
<path d="M 2105, 2150c -2,2 -3,3 -5,5z" class="c16"/>
<path d="M 2105, 2160c -2,2 -3,3 -5,5z" class="c8"/>
<path d="M 2115, 1510c -2,2 -3,3 -5,5z" class="c8"/>
<path d="M 2115, 1520c -2,2 -3,3 -5,5z" class="c17"/>
<path d="M 2115, 1530c -2,2 -3,3 -5,5z" class="c18"/>
<path d="M 2115, 2160c 0,6 -5,28 -5,5z" class="c18"/>
<path d="M 2125, 1500c 6,-13 13,-13 -5,5z" class="c17"/>
<path d="M 2125, 1510c -2,2 -3,3 -5,5z" class="c18"/>
<path d="M 2125, 2170c -2,2 -3,3 -5,5z" class="c8"/>
<path d="M 2125, 2180c -2,2 -3,3 -5,5z" class="c17"/>
<path d="M 2125, 2190c -2,2 -3,3 -5,5z" class="c8"/>
<path d="M 2135, 1480c -2,2 -3,3 -5,5z" class="c18"/>
<path d="M 2135, 1500c -2,2 -3,3 -5,5z" class="c8"/>
<path d="M 2135, 2190c 0,6 -5,28 -5,5z" class="c18"/>
<path d="M 2145, 1460c -2,2 -3,3 -5,5z" class="c8"/>
<path d="M 2145, 1470c -2,2 -3,3 -5,5z" class="c16"/>
<path d="M 2145, 1480c -2,2 -3,3 -5,5z" class="c8"/>
<path d="M 2145, 2210c -2,2 -3,3 -5,5z" class="c17"/>
<path d="M 2145, 2220c -2,2 -3,3 -5,5z" class="c18"/>
<path d="M 2155, 1440c -2,2 -3,3 -5,5z" class="c8"/>
<path d="M 2155, 1450c -2,2 -3,3 -5,5z" class="c17"/>
<path d="M 2155, 1460c -2,2 -3,3 -5,5z" class="c18"/>
<path d="M 2155, 1930c 14,0 81,-9 90,0c 1,1 -20,5 -95,5z" class="c18"/>
<path d="M 2155, 2220c -2,2 -3,3 -5,5z" class="c7"/>
<path d="M 2155, 2230c -2,2 -3,3 -5,5z" class="c17"/>
<path d="M 2155, 2240c -2,2 -3,3 -5,5z" class="c8"/>
<path d="M 2165, 1430c 0,6 -5,28 -5,5z" class="c18"/>
<path d="M 2165, 2240c 0,6 -5,28 -5,5z" class="c18"/>
<path d="M 2175, 1410c -2,2 -3,3 -5,5z" class="c18"/>
<path d="M 2175, 1420c -2,2 -3,3 -5,5z" class="c17"/>
<path d="M 2175, 1430c -2,2 -3,3 -5,5z" class="c8"/>
<path d="M 2175, 2250c -2,2 -3,3 -5,5z" class="c8"/>
<path d="M 2175, 2260c -2,2 -3,3 -5,5z" class="c17"/>
<path d="M 2175, 2270c -2,2 -3,3 -5,5z" class="c8"/>
<path d="M 2185, 1390c -2,2 -3,3 -5,5z" class="c8"/>
<path d="M 2185, 1400c -2,2 -3,3 -5,5z" class="c17"/>
<path d="M 2185, 1410c -2,2 -3,3 -5,5z" class="c8"/>
<path d="M 2185, 1770c -2,2 -3,3 -5,5z" class="c7"/>
<path d="M 2185, 2270c -2,2 -3,3 -5,5z" class="c18"/>
<path d="M 2185, 2280c 9,18 13,14 -5,5z" class="c17"/>
<path d="M 2195, 1370c -2,2 -3,3 -5,5z" class="c8"/>
<path d="M 2195, 1380c -2,2 -3,3 -5,5z" class="c17"/>
<path d="M 2195, 1390c -2,2 -3,3 -5,5z" class="c18"/>
<path d="M 2195, 1770c 14,0 81,-9 90,0c 1,1 -20,5 -95,5z" class="c18"/>
<path d="M 2195, 2280c -2,2 -3,3 -5,5z" class="c8"/>
<path d="M 2195, 2300c 23,0 1,5 -5,5z" class="c7"/>
<path d="M 2205, 1360c 0,6 -5,28 -5,5z" class="c18"/>
<path d="M 2205, 2310c 9,18 13,14 -5,5z" class="c17"/>
<path d="M 2205, 2320c -2,2 -3,3 -5,5z" class="c8"/>
<path d="M 2215, 1340c -2,2 -3,3 -5,5z" class="c18"/>
<path d="M 2215, 1350c -2,2 -3,3 -5,5z" class="c16"/>
<path d="M 2215, 1360c -2,2 -3,3 -5,5z" class="c8"/>
<path d="M 2215, 2330c -2,2 -3,3 -5,5z" class="c18"/>
<path d="M 2225, 1320c -2,2 -3,3 -5,5z" class="c8"/>
<path d="M 2225, 1330c -2,2 -3,3 -5,5z" class="c17"/>
<path d="M 2225, 1340c -2,2 -3,3 -5,5z" class="c7"/>
<path d="M 2225, 2330c -2,2 -3,3 -5,5z" class="c8"/>
<path d="M 2225, 2340c -2,2 -3,3 -5,5z" class="c17"/>
<path d="M 2225, 2350c -2,2 -3,3 -5,5z" class="c8"/>
<path d="M 2235, 1310c -2,2 -3,3 -5,5z" class="c17"/>
<path d="M 2235, 1320c -2,2 -3,3 -5,5z" class="c18"/>
<path d="M 2235, 2350c 0,6 -5,28 -5,5z" class="c18"/>
<path d="M 2245, 1290c -2,2 -3,3 -5,5z" class="c18"/>
<path d="M 2245, 1300c -2,2 -3,3 -5,5z" class="c17"/>
<path d="M 2245, 2360c -2,2 -3,3 -5,5z" class="c8"/>
<path d="M 2245, 2370c -2,2 -3,3 -5,5z" class="c17"/>
<path d="M 2245, 2380c -2,2 -3,3 -5,5z" class="c7"/>
<path d="M 2255, 1270c -2,2 -3,3 -5,5z" class="c18"/>
<path d="M 2255, 1280c -2,2 -3,3 -5,5z" class="c17"/>
<path d="M 2255, 1290c -2,2 -3,3 -5,5z" class="c8"/>
<path d="M 2255, 1930c -2,2 -3,3 -5,5z" class="c7"/>
<path d="M 2255, 2380c -2,2 -3,3 -5,5z" class="c18"/>
<path d="M 2255, 2390c -2,2 -3,3 -5,5z" class="c17"/>
<path d="M 2265, 1250c -2,2 -3,3 -5,5z" class="c8"/>
<path d="M 2265, 1260c -2,2 -3,3 -5,5z" class="c16"/>
<path d="M 2265, 1270c -2,2 -3,3 -5,5z" class="c7"/>
<path d="M 2265, 1930c 14,0 81,-9 90,0c 1,1 -20,5 -95,5z" class="c8"/>
<path d="M 2265, 2400c -2,2 -3,3 -5,5z" class="c17"/>
<path d="M 2265, 2410c -2,2 -3,3 -5,5z" class="c18"/>
<path d="M 2275, 1240c -2,2 -3,3 -5,5z" class="c17"/>
<path d="M 2275, 1250c -2,2 -3,3 -5,5z" class="c18"/>
<path d="M 2275, 2410c -2,2 -3,3 -5,5z" class="c7"/>
<path d="M 2275, 2420c -2,2 -3,3 -5,5z" class="c16"/>
<path d="M 2275, 2430c -2,2 -3,3 -5,5z" class="c8"/>
<path d="M 2285, 1220c -2,2 -3,3 -5,5z" class="c18"/>
<path d="M 2285, 1230c -2,2 -3,3 -5,5z" class="c16"/>
<path d="M 2285, 2430c 0,6 -5,28 -5,5z" class="c18"/>
<path d="M 2295, 1200c 23,0 1,5 -5,5z" class="c7"/>
<path d="M 2295, 1210c -2,2 -3,3 -5,5z" class="c17"/>
<path d="M 2295, 1220c -2,2 -3,3 -5,5z" class="c8"/>
<path d="M 2295, 1770c 14,0 81,-9 90,0c 1,1 -20,5 -95,5z" class="c15"/>
<path d="M 2295, 2440c -2,2 -3,3 -5,5z" class="c8"/>
<path d="M 2295, 2450c -2,2 -3,3 -5,5z" class="c16"/>
<path d="M 2295, 2460c -2,2 -3,3 -5,5z" class="c8"/>
<path d="M 2305, 1180c -2,2 -3,3 -5,5z" class="c8"/>
<path d="M 2305, 1190c -2,2 -3,3 -5,5z" class="c16"/>
<path d="M 2305, 2460c -2,2 -3,3 -5,5z" class="c18"/>
<path d="M 2305, 2470c -2,2 -3,3 -5,5z" class="c17"/>
<path d="M 2315, 1170c -2,2 -3,3 -5,5z" class="c17"/>
<path d="M 2315, 1180c -2,2 -3,3 -5,5z" class="c18"/>
<path d="M 2315, 2480c -2,2 -3,3 -5,5z" class="c16"/>
<path d="M 2315, 2490c -2,2 -3,3 -5,5z" class="c18"/>
<path d="M 2325, 1150c -2,2 -3,3 -5,5z" class="c18"/>
<path d="M 2325, 1160c -2,2 -3,3 -5,5z" class="c17"/>
<path d="M 2325, 2490c -2,2 -3,3 -5,5z" class="c8"/>
<path d="M 2325, 2500c 9,18 13,14 -5,5z" class="c17"/>
<path d="M 2325, 2510c -2,2 -3,3 -5,5z" class="c8"/>
<path d="M 2335, 1130c 23,0 1,5 -5,5z" class="c7"/>
<path d="M 2335, 1140c -2,2 -3,3 -5,5z" class="c17"/>
<path d="M 2335, 1150c -2,2 -3,3 -5,5z" class="c8"/>
<path d="M 2335, 2520c -2,2 -3,3 -5,5z" class="c18"/>
<path d="M 2345, 1110c -2,2 -3,3 -5,5z" class="c8"/>
<path d="M 2345, 1120c -2,2 -3,3 -5,5z" class="c17"/>
<path d="M 2345, 2520c -2,2 -3,3 -5,5z" class="c8"/>
<path d="M 2345, 2530c -2,2 -3,3 -5,5z" class="c17"/>
<path d="M 2345, 2540c -2,2 -3,3 -5,5z" class="c8"/>
<path d="M 2355, 1100c -2,2 -3,3 -5,5z" class="c17"/>
<path d="M 2355, 1110c -2,2 -3,3 -5,5z" class="c18"/>
<path d="M 2355, 2540c -2,2 -3,3 -5,5z" class="c18"/>
<path d="M 2355, 2550c -2,2 -3,3 -5,5z" class="c17"/>
<path d="M 2365, 1080c -2,2 -3,3 -5,5z" class="c18"/>
<path d="M 2365, 1090c -2,2 -3,3 -5,5z" class="c17"/>
<path d="M 2365, 1920c 14,0 81,-9 90,0c 1,1 -20,5 -95,5z" class="c10"/>
<path d="M 2365, 2560c -2,2 -3,3 -5,5z" class="c17"/>
<path d="M 2365, 2570c 23,0 1,5 -5,5z" class="c7"/>
<path d="M 2375, 1060c -2,2 -3,3 -5,5z" class="c8"/>
<path d="M 2375, 1070c -2,2 -3,3 -5,5z" class="c16"/>
<path d="M 2375, 1080c -2,2 -3,3 -5,5z" class="c8"/>
<path d="M 2375, 2580c -2,2 -3,3 -5,5z" class="c17"/>
<path d="M 2375, 2590c -2,2 -3,3 -5,5z" class="c8"/>
<path d="M 2385, 1040c -2,2 -3,3 -5,5z" class="c8"/>
<path d="M 2385, 1050c -2,2 -3,3 -5,5z" class="c17"/>
<path d="M 2385, 1060c -2,2 -3,3 -5,5z" class="c7"/>
<path d="M 2385, 2590c 0,6 -5,28 -5,5z" class="c18"/>
<path d="M 2395, 1030c 6,-13 13,-13 -5,5z" class="c17"/>
<path d="M 2395, 1040c -2,2 -3,3 -5,5z" class="c18"/>
<path d="M 2395, 1770c -2,2 -3,3 -5,5z" class="c23"/>
<path d="M 2395, 2600c -2,2 -3,3 -5,5z" class="c8"/>
<path d="M 2395, 2610c -2,2 -3,3 -5,5z" class="c16"/>
<path d="M 2395, 2620c -2,2 -3,3 -5,5z" class="c8"/>
<path d="M 2405, 1010c -2,2 -3,3 -5,5z" class="c7"/>
<path d="M 2405, 1030c -2,2 -3,3 -5,5z" class="c8"/>
<path d="M 2405, 1770c 14,0 81,-9 90,0c 1,1 -20,5 -95,5z" class="c14"/>
<path d="M 2405, 2620c 0,6 -5,28 -5,5z" class="c18"/>
<path d="M 2415, 990c -2,2 -3,3 -5,5z" class="c8"/>
<path d="M 2415, 1000c -2,2 -3,3 -5,5z" class="c17"/>
<path d="M 2415, 1010c -2,2 -3,3 -5,5z" class="c8"/>
<path d="M 2415, 2640c -2,2 -3,3 -5,5z" class="c17"/>
<path d="M 2415, 2650c 23,0 1,5 -5,5z" class="c7"/>
<path d="M 2425, 970c -2,2 -3,3 -5,5z" class="c8"/>
<path d="M 2425, 980c 1,-3 13,-37 20,-30c 2,2 -20,29 -20,30c -1,1 -5,32 -5,5z" class="c18"/>
<path d="M 2425, 2660c -2,2 -3,3 -5,5z" class="c18"/>
<path d="M 2435, 2670c 0,11 -1,10 5,20c 1,2 7,3 5,5c -3,3 -15,-15 -15,-20z" class="c18"/>
<path d="M 2445, 940c 10,-19 18,5 0,5z" class="c8"/>
<path d="M 2445, 960c -2,2 -3,3 -5,5z" class="c8"/>
<path d="M 2445, 2680c 9,18 13,14 -5,5z" class="c8"/>
<path d="M 2455, 2700c -2,2 -3,3 -5,5z" class="c6"/>
<path d="M 2455, 2710c 0,45 -5,90 -5,5z" class="c7"/>
<path d="M 2455, 2770c -2,2 -3,3 -5,5z" class="c6"/>
<path d="M 2455, 2780c 0,152 -12,279 5,290c 10,7 262,0 320,0c 2,0 39,1 35,5c -1,1 -149,0 -190,0c -27,0 -165,5 -175,-10c -11,-17 0,-242 0,-280z" class="c5"/>
<path d="M 2455, 3070c -2,2 -3,3 -5,5z" class="c7"/>
<path d="M 2465, 580c 117,0 518,-2 520,0c 1,1 -58,5 -65,5c -153,0 -307,0 -460,0z" class="c8"/>
<path d="M 2465, 590c 0,61 -5,122 -5,5z" class="c5"/>
<path d="M 2465, 670c 0,67 0,133 0,200c 0,0 0,30 -5,25c -5,-5 0,-164 0,-220z" class="c2"/>
<path d="M 2465, 900c 22,-45 -10,-295 5,-310c 12,-12 138,0 180,0c 55,0 297,-11 330,0c 46,15 -57,-8 15,10c 44,11 123,0 170,0c 210,0 420,0 630,0c 70,0 231,-9 240,0c 10,10 0,84 0,100c 0,39 11,126 0,160c -6,18 -190,5 -215,5c -217,0 -433,0 -650,0c -37,0 -253,11 -270,0c -3,-2 -2,-8 -5,-10c -22,-15 -74,9 -100,0c -20,-7 -32,-10 -55,-10c -8,0 -34,4 -40,0c -6,-4 -24,-22 -35,-5c -18,27 35,27 40,30c 3,2 2,8 5,10c 22,15 53,15 75,30c 3,2 2,8 5,10c 7,5 28,5 35,10c 3,2 7,13 10,15c 6,4 14,1 20,5c 9,6 16,24 25,30c 12,8 108,63 115,70c 12,12 -1,7 10,15c 6,4 14,1 20,5c 3,2 7,13 10,15c 6,4 14,1 20,5c 3,2 7,13 10,15c 6,4 14,1 20,5c 9,6 16,24 25,30c 14,10 123,78 130,80c 13,4 15,18 25,25c 6,4 14,1 20,5c 3,2 7,13 10,15c 6,4 15,0 20,5c 10,10 0,84 0,100c 0,39 11,126 0,160c -5,14 -48,-37 -60,-45c -13,-8 -75,-40 -85,-50c -12,-12 1,-7 -10,-15c -6,-4 -14,-1 -20,-5c -5,-3 -5,-12 -10,-15c -6,-4 -14,-1 -20,-5c -3,-2 -7,-13 -10,-15c -6,-4 -14,-1 -20,-5c -20,-14 -35,-36 -55,-50c -16,-11 -40,-15 -55,-30c -12,-12 1,-7 -10,-15c -6,-4 -14,-1 -20,-5c -3,-2 -7,-13 -10,-15c -6,-4 -14,-1 -20,-5c -5,-3 -5,-12 -10,-15c -6,-4 -14,-1 -20,-5c -9,-6 -16,-24 -25,-30c -13,-8 -75,-40 -85,-50c -12,-12 1,-7 -10,-15c -16,-10 -35,-15 -50,-25c -20,-14 -35,-36 -55,-50c -27,-18 -184,-113 -195,-130c -3,-4 0,-24 0,-30z" class="c1"/>
<path d="M 2465, 940c -2,2 -3,3 -5,5z" class="c5"/>
<path d="M 2465, 1920c 14,0 81,-9 90,0c 1,1 -20,5 -95,5z" class="c11"/>
<path d="M 2465, 2690c -2,2 -3,3 -5,5z" class="c5"/>
<path d="M 2465, 2700c 8,-15 155,-103 180,-120c 6,-4 11,-17 20,-20c 26,-9 85,-50 105,-70c 7,-7 103,-62 115,-70c 9,-6 16,-24 25,-30c 7,-5 28,-5 35,-10c 9,-6 16,-24 25,-30c 15,-10 34,-15 50,-25c 5,-3 5,-12 10,-15c 6,-4 14,-1 20,-5c 14,-10 25,-25 40,-35c 6,-4 14,-1 20,-5c 5,-3 5,-12 10,-15c 6,-4 14,-1 20,-5c 5,-3 5,-12 10,-15c 6,-4 14,-1 20,-5c 3,-2 7,-13 10,-15c 6,-4 14,-1 20,-5c 14,-10 25,-25 40,-35c 6,-4 14,-1 20,-5c 8,-6 54,-56 65,-45c 11,11 -4,64 0,80c 18,72 -5,-31 10,15c 8,24 0,65 0,90c 0,14 8,58 0,70c -10,14 -27,16 -40,25c -5,3 -5,12 -10,15c -6,4 -14,1 -20,5c -14,10 -25,25 -40,35c -6,4 -14,1 -20,5c -5,3 -5,12 -10,15c -6,4 -14,1 -20,5c -11,8 2,3 -10,15c -10,10 -72,42 -85,50c -14,9 -34,35 -50,40c -3,1 -7,-2 -10,0c -9,6 -16,24 -25,30c -6,4 -14,1 -20,5c -5,3 -5,12 -10,15c -6,4 -14,1 -20,5c -5,3 -5,12 -10,15c -6,4 -14,1 -20,5c -14,10 -25,25 -40,35c -6,4 -14,1 -20,5c -15,10 -27,26 -40,35c -7,5 -28,5 -35,10c -6,4 -11,17 -20,20c -6,2 -14,-4 -20,0c -3,2 -2,8 -5,10c -6,4 -14,-2 -20,0c -14,3 -21,14 -30,20c -8,6 -22,-7 -30,5c -3,4 2,18 5,20c 5,3 71,-10 295,-10c 273,0 547,0 820,0c 73,0 246,-4 250,0c 10,10 0,84 0,100c 0,39 11,126 0,160c -7,20 -226,5 -255,5c -249,0 -420,0 -420,0c -3,-2 -2,-8 -5,-10c -12,-8 -164,0 -190,0c -85,0 -658,11 -690,0c -3,-1 -5,-81 -5,-355z" class="c1"/>
<path d="M 2475, 950c -2,2 -3,3 -5,5z" class="c6"/>
<path d="M 2475, 2680c -2,2 -3,3 -5,5z" class="c6"/>
<path d="M 2485, 960c -2,2 -3,3 -5,5z" class="c8"/>
<path d="M 2485, 2670c -2,2 -3,3 -5,5z" class="c8"/>
<path d="M 2485, 2680c -2,2 -3,3 -5,5z" class="c2"/>
<path d="M 2495, 960c -2,2 -3,3 -5,5z" class="c4"/>
<path d="M 2495, 2670c -2,2 -3,3 -5,5z" class="c5"/>
<path d="M 2505, 970c -2,2 -3,3 -5,5z" class="c6"/>
<path d="M 2505, 1770c 14,0 81,-9 90,0c 1,1 -20,5 -95,5z" class="c13"/>
<path d="M 2505, 2660c -2,2 -3,3 -5,5z" class="c6"/>
<path d="M 2515, 980c -2,2 -3,3 -5,5z" class="c7"/>
<path d="M 2515, 2650c -2,2 -3,3 -5,5z" class="c8"/>
<path d="M 2515, 2660c -2,2 -3,3 -5,5z" class="c2"/>
<path d="M 2525, 980c -2,2 -3,3 -5,5z" class="c3"/>
<path d="M 2525, 2650c -2,2 -3,3 -5,5z" class="c4"/>
<path d="M 2535, 990c -2,2 -3,3 -5,5z" class="c5"/>
<path d="M 2535, 2640c -2,2 -3,3 -5,5z" class="c6"/>
<path d="M 2545, 1000c -2,2 -3,3 -5,5z" class="c7"/>
<path d="M 2545, 2630c -2,2 -3,3 -5,5z" class="c8"/>
<path d="M 2555, 1000c -2,2 -3,3 -5,5z" class="c2"/>
<path d="M 2555, 2630c -2,2 -3,3 -5,5z" class="c4"/>
<path d="M 2565, 1010c -2,2 -3,3 -5,5z" class="c5"/>
<path d="M 2565, 1920c 14,0 81,-9 90,0c 1,1 -20,5 -95,5z" class="c12"/>
<path d="M 2565, 2620c -2,2 -3,3 -5,5z" class="c6"/>
<path d="M 2575, 1020c -2,2 -3,3 -5,5z" class="c6"/>
<path d="M 2575, 2610c -2,2 -3,3 -5,5z" class="c8"/>
<path d="M 2575, 2620c -2,2 -3,3 -5,5z" class="c2"/>
<path d="M 2585, 1030c -2,2 -3,3 -5,5z" class="c8"/>
<path d="M 2585, 2610c -2,2 -3,3 -5,5z" class="c4"/>
<path d="M 2595, 1030c -2,2 -3,3 -5,5z" class="c4"/>
<path d="M 2595, 2600c -2,2 -3,3 -5,5z" class="c6"/>
<path d="M 2605, 1040c -2,2 -3,3 -5,5z" class="c24"/>
<path d="M 2605, 1770c 14,0 81,-9 90,0c 1,1 -20,5 -95,5z" class="c11"/>
<path d="M 2605, 2590c -2,2 -3,3 -5,5z" class="c8"/>
<path d="M 2615, 1050c -2,2 -3,3 -5,5z" class="c7"/>
<path d="M 2615, 2590c -2,2 -3,3 -5,5z" class="c4"/>
<path d="M 2625, 1050c -2,2 -3,3 -5,5z" class="c3"/>
<path d="M 2625, 2580c -2,2 -3,3 -5,5z" class="c6"/>
<path d="M 2635, 1060c -2,2 -3,3 -5,5z" class="c5"/>
<path d="M 2635, 2570c -2,2 -3,3 -5,5z" class="c8"/>
<path d="M 2645, 1070c -2,2 -3,3 -5,5z" class="c7"/>
<path d="M 2645, 2570c -2,2 -3,3 -5,5z" class="c3"/>
<path d="M 2655, 1070c -2,2 -3,3 -5,5z" class="c2"/>
<path d="M 2655, 1080c -2,2 -3,3 -5,5z" class="c8"/>
<path d="M 2655, 2560c -2,2 -3,3 -5,5z" class="c6"/>
<path d="M 2665, 1080c -2,2 -3,3 -5,5z" class="c4"/>
<path d="M 2665, 1920c -2,2 -3,3 -5,5z" class="c13"/>
<path d="M 2665, 2550c -2,2 -3,3 -5,5z" class="c8"/>
<path d="M 2665, 2800c 0,6 -5,28 -5,5z" class="c2"/>
<path d="M 2675, 840c -2,2 -3,3 -5,5z" class="c3"/>
<path d="M 2675, 850c -2,2 -3,3 -5,5z" class="c5"/>
<path d="M 2675, 1090c -2,2 -3,3 -5,5z" class="c6"/>
<path d="M 2675, 1920c 14,0 81,-9 90,0c 1,1 -20,5 -95,5z" class="c16"/>
<path d="M 2675, 2550c -2,2 -3,3 -5,5z" class="c4"/>
<path d="M 2675, 2800c 0,6 -5,28 -5,5z" class="c6"/>
<path d="M 2685, 840c -2,2 -3,3 -5,5z" class="c4"/>
<path d="M 2685, 850c -2,2 -3,3 -5,5z" class="c8"/>
<path d="M 2685, 860c -2,2 -3,3 -5,5z" class="c2"/>
<path d="M 2685, 1090c -2,2 -3,3 -5,5z" class="c2"/>
<path d="M 2685, 1100c -2,2 -3,3 -5,5z" class="c8"/>
<path d="M 2685, 2540c -2,2 -3,3 -5,5z" class="c5"/>
<path d="M 2685, 2800c -2,2 -3,3 -5,5z" class="c8"/>
<path d="M 2685, 2810c 23,0 1,5 -5,5z" class="c5"/>
<path d="M 2695, 840c -2,2 -3,3 -5,5z" class="c3"/>
<path d="M 2695, 850c -2,2 -3,3 -5,5z" class="c0"/>
<path d="M 2695, 860c -2,2 -3,3 -5,5z" class="c24"/>
<path d="M 2695, 1100c -2,2 -3,3 -5,5z" class="c4"/>
<path d="M 2695, 2530c -2,2 -3,3 -5,5z" class="c7"/>
<path d="M 2695, 2790c -2,2 -3,3 -5,5z" class="c4"/>
<path d="M 2705, 850c 0,6 -5,28 -5,5z" class="c8"/>
<path d="M 2705, 1110c -2,2 -3,3 -5,5z" class="c6"/>
<path d="M 2705, 1760c 16,0 90,-10 100,0c 4,4 -10,5 -15,5c -30,0 -60,0 -90,0z" class="c8"/>
<path d="M 2705, 2530c -2,2 -3,3 -5,5z" class="c3"/>
<path d="M 2705, 2790c -2,2 -3,3 -5,5z" class="c6"/>
<path d="M 2705, 2810c 23,0 1,5 -5,5z" class="c4"/>
<path d="M 2715, 850c 23,0 1,5 -5,5z" class="c7"/>
<path d="M 2715, 870c -2,2 -3,3 -5,5z" class="c4"/>
<path d="M 2715, 1120c -2,2 -3,3 -5,5z" class="c7"/>
<path d="M 2715, 2520c -2,2 -3,3 -5,5z" class="c5"/>
<path d="M 2715, 2780c -2,2 -3,3 -5,5z" class="c2"/>
<path d="M 2715, 2790c -2,2 -3,3 -5,5z" class="c8"/>
<path d="M 2725, 870c -2,2 -3,3 -5,5z" class="c7"/>
<path d="M 2725, 1120c -2,2 -3,3 -5,5z" class="c3"/>
<path d="M 2725, 2510c -2,2 -3,3 -5,5z" class="c7"/>
<path d="M 2725, 2780c -2,2 -3,3 -5,5z" class="c5"/>
<path d="M 2725, 2810c -2,2 -3,3 -5,5z" class="c3"/>
<path d="M 2735, 850c -2,2 -3,3 -5,5z" class="c6"/>
<path d="M 2735, 880c -2,2 -3,3 -5,5z" class="c3"/>
<path d="M 2735, 1130c -2,2 -3,3 -5,5z" class="c5"/>
<path d="M 2735, 2510c -2,2 -3,3 -5,5z" class="c3"/>
<path d="M 2735, 2780c -2,2 -3,3 -5,5z" class="c7"/>
<path d="M 2735, 2810c -2,2 -3,3 -5,5z" class="c2"/>
<path d="M 2745, 850c 23,0 1,5 -5,5z" class="c5"/>
<path d="M 2745, 880c -2,2 -3,3 -5,5z" class="c6"/>
<path d="M 2745, 1140c -2,2 -3,3 -5,5z" class="c7"/>
<path d="M 2745, 2500c -2,2 -3,3 -5,5z" class="c5"/>
<path d="M 2745, 2770c -2,2 -3,3 -5,5z" class="c3"/>
<path d="M 2745, 2800c 29,0 16,5 -5,5z" class="c8"/>
<path d="M 2755, 890c -2,2 -3,3 -5,5z" class="c2"/>
<path d="M 2755, 1140c -2,2 -3,3 -5,5z" class="c2"/>
<path d="M 2755, 1150c -2,2 -3,3 -5,5z" class="c8"/>
<path d="M 2755, 2490c -2,2 -3,3 -5,5z" class="c7"/>
<path d="M 2755, 2770c -2,2 -3,3 -5,5z" class="c6"/>
<path d="M 2765, 850c 29,0 16,5 -5,5z" class="c2"/>
<path d="M 2765, 890c -2,2 -3,3 -5,5z" class="c5"/>
<path d="M 2765, 1150c -2,2 -3,3 -5,5z" class="c4"/>
<path d="M 2765, 2490c -2,2 -3,3 -5,5z" class="c3"/>
<path d="M 2775, 890c -2,2 -3,3 -5,5z" class="c8"/>
<path d="M 2775, 900c -2,2 -3,3 -5,5z" class="c2"/>
<path d="M 2775, 1160c -2,2 -3,3 -5,5z" class="c6"/>
<path d="M 2775, 1920c -2,2 -3,3 -5,5z" class="c17"/>
<path d="M 2775, 2480c -2,2 -3,3 -5,5z" class="c5"/>
<path d="M 2775, 2760c -2,2 -3,3 -5,5z" class="c5"/>
<path d="M 2775, 2800c 4,0 27,-3 30,0c 4,4 -33,5 -35,5z" class="c7"/>
<path d="M 2785, 900c -2,2 -3,3 -5,5z" class="c5"/>
<path d="M 2785, 1170c -2,2 -3,3 -5,5z" class="c8"/>
<path d="M 2785, 1920c 14,0 81,-9 90,0c 1,1 -20,5 -95,5z" class="c18"/>
<path d="M 2785, 2470c -2,2 -3,3 -5,5z" class="c7"/>
<path d="M 2785, 2750c -2,2 -3,3 -5,5z" class="c2"/>
<path d="M 2785, 2760c -2,2 -3,3 -5,5z" class="c8"/>
<path d="M 2795, 860c 23,0 1,5 -5,5z" class="c8"/>
<path d="M 2795, 910c -2,2 -3,3 -5,5z" class="c2"/>
<path d="M 2795, 1170c -2,2 -3,3 -5,5z" class="c4"/>
<path d="M 2795, 2460c -2,2 -3,3 -5,5z" class="c8"/>
<path d="M 2795, 2470c -2,2 -3,3 -5,5z" class="c2"/>
<path d="M 2795, 2750c -2,2 -3,3 -5,5z" class="c5"/>
<path d="M 2805, 910c -2,2 -3,3 -5,5z" class="c6"/>
<path d="M 2805, 1180c -2,2 -3,3 -5,5z" class="c6"/>
<path d="M 2805, 2460c -2,2 -3,3 -5,5z" class="c5"/>
<path d="M 2805, 2740c -2,2 -3,3 -5,5z" class="c2"/>
<path d="M 2805, 2750c -2,2 -3,3 -5,5z" class="c8"/>
<path d="M 2815, 860c -2,2 -3,3 -5,5z" class="c7"/>
<path d="M 2815, 920c -2,2 -3,3 -5,5z" class="c4"/>
<path d="M 2815, 1190c -2,2 -3,3 -5,5z" class="c7"/>
<path d="M 2815, 1760c 14,0 81,-9 90,0c 1,1 -20,5 -95,5z" class="c7"/>
<path d="M 2815, 2450c -2,2 -3,3 -5,5z" class="c7"/>
<path d="M 2815, 2740c -2,2 -3,3 -5,5z" class="c6"/>
<path d="M 2815, 2800c 62,0 36,5 -5,5z" class="c6"/>
<path d="M 2825, 860c -2,2 -3,3 -5,5z" class="c6"/>
<path d="M 2825, 920c -2,2 -3,3 -5,5z" class="c8"/>
<path d="M 2825, 1190c -2,2 -3,3 -5,5z" class="c3"/>
<path d="M 2825, 2440c -2,2 -3,3 -5,5z" class="c8"/>
<path d="M 2825, 2450c -2,2 -3,3 -5,5z" class="c2"/>
<path d="M 2825, 2730c -2,2 -3,3 -5,5z" class="c4"/>
<path d="M 2825, 3070c 127,0 506,-4 510,0c 1,1 -58,5 -65,5c -150,0 -300,0 -450,0z" class="c4"/>
<path d="M 2835, 860c -2,2 -3,3 -5,5z" class="c24"/>
<path d="M 2835, 930c -2,2 -3,3 -5,5z" class="c6"/>
<path d="M 2835, 1200c -2,2 -3,3 -5,5z" class="c5"/>
<path d="M 2835, 2440c -2,2 -3,3 -5,5z" class="c5"/>
<path d="M 2835, 2730c -2,2 -3,3 -5,5z" class="c8"/>
<path d="M 2845, 860c 29,0 16,5 -5,5z" class="c5"/>
<path d="M 2845, 940c -2,2 -3,3 -5,5z" class="c4"/>
<path d="M 2845, 1210c -2,2 -3,3 -5,5z" class="c7"/>
<path d="M 2845, 2430c -2,2 -3,3 -5,5z" class="c6"/>
<path d="M 2845, 2720c -2,2 -3,3 -5,5z" class="c6"/>
<path d="M 2855, 940c -2,2 -3,3 -5,5z" class="c8"/>
<path d="M 2855, 1210c -2,2 -3,3 -5,5z" class="c2"/>
<path d="M 2855, 1220c -2,2 -3,3 -5,5z" class="c8"/>
<path d="M 2855, 2420c -2,2 -3,3 -5,5z" class="c8"/>
<path d="M 2855, 2430c -2,2 -3,3 -5,5z" class="c2"/>
<path d="M 2855, 2710c -2,2 -3,3 -5,5z" class="c4"/>
<path d="M 2865, 950c -2,2 -3,3 -5,5z" class="c6"/>
<path d="M 2865, 1220c -2,2 -3,3 -5,5z" class="c4"/>
<path d="M 2865, 2420c -2,2 -3,3 -5,5z" class="c4"/>
<path d="M 2865, 2700c -2,2 -3,3 -5,5z" class="c2"/>
<path d="M 2865, 2710c -2,2 -3,3 -5,5z" class="c8"/>
<path d="M 2865, 2800c 105,0 389,-11 400,0c 2,2 -50,5 -55,5c -117,0 -233,0 -350,0z" class="c5"/>
<path d="M 2875, 860c 23,0 1,5 -5,5z" class="c4"/>
<path d="M 2875, 960c -2,2 -3,3 -5,5z" class="c4"/>
<path d="M 2875, 1230c -2,2 -3,3 -5,5z" class="c6"/>
<path d="M 2875, 2410c -2,2 -3,3 -5,5z" class="c6"/>
<path d="M 2875, 2700c -2,2 -3,3 -5,5z" class="c6"/>
<path d="M 2885, 960c -2,2 -3,3 -5,5z" class="c8"/>
<path d="M 2885, 970c -2,2 -3,3 -5,5z" class="c2"/>
<path d="M 2885, 1240c -2,2 -3,3 -5,5z" class="c8"/>
<path d="M 2885, 1920c 14,0 81,-9 90,0c 1,1 -20,5 -95,5z" class="c7"/>
<path d="M 2885, 2400c -2,2 -3,3 -5,5z" class="c8"/>
<path d="M 2885, 2410c -2,2 -3,3 -5,5z" class="c2"/>
<path d="M 2885, 2690c -2,2 -3,3 -5,5z" class="c5"/>
<path d="M 2895, 860c -2,2 -3,3 -5,5z" class="c3"/>
<path d="M 2895, 970c -2,2 -3,3 -5,5z" class="c7"/>
<path d="M 2895, 1240c -2,2 -3,3 -5,5z" class="c4"/>
<path d="M 2895, 2400c -2,2 -3,3 -5,5z" class="c4"/>
<path d="M 2895, 2680c -2,2 -3,3 -5,5z" class="c2"/>
<path d="M 2895, 2690c -2,2 -3,3 -5,5z" class="c8"/>
<path d="M 2905, 980c -2,2 -3,3 -5,5z" class="c5"/>
<path d="M 2905, 1250c -2,2 -3,3 -5,5z" class="c5"/>
<path d="M 2905, 2390c -2,2 -3,3 -5,5z" class="c6"/>
<path d="M 2905, 2680c -2,2 -3,3 -5,5z" class="c6"/>
<path d="M 2915, 990c -2,2 -3,3 -5,5z" class="c3"/>
<path d="M 2915, 1260c -2,2 -3,3 -5,5z" class="c7"/>
<path d="M 2915, 1760c 14,0 81,-9 90,0c 1,1 -20,5 -95,5z" class="c18"/>
<path d="M 2915, 2380c -2,2 -3,3 -5,5z" class="c8"/>
<path d="M 2915, 2670c -2,2 -3,3 -5,5z" class="c5"/>
<path d="M 2925, 990c -2,2 -3,3 -5,5z" class="c7"/>
<path d="M 2925, 1260c -2,2 -3,3 -5,5z" class="c3"/>
<path d="M 2925, 2380c -2,2 -3,3 -5,5z" class="c4"/>
<path d="M 2925, 2660c -2,2 -3,3 -5,5z" class="c3"/>
<path d="M 2935, 870c 80,0 265,-5 270,0c 4,4 -33,5 -35,5c -80,0 -160,0 -240,0z" class="c8"/>
<path d="M 2935, 1000c -2,2 -3,3 -5,5z" class="c5"/>
<path d="M 2935, 1270c -2,2 -3,3 -5,5z" class="c5"/>
<path d="M 2935, 2370c -2,2 -3,3 -5,5z" class="c6"/>
<path d="M 2935, 2660c -2,2 -3,3 -5,5z" class="c7"/>
<path d="M 2945, 1010c -2,2 -3,3 -5,5z" class="c4"/>
<path d="M 2945, 1280c -2,2 -3,3 -5,5z" class="c6"/>
<path d="M 2945, 2360c -2,2 -3,3 -5,5z" class="c8"/>
<path d="M 2945, 2370c -2,2 -3,3 -5,5z" class="c2"/>
<path d="M 2945, 2650c -2,2 -3,3 -5,5z" class="c5"/>
<path d="M 2955, 1010c -2,2 -3,3 -5,5z" class="c7"/>
<path d="M 2955, 1280c -2,2 -3,3 -5,5z" class="c2"/>
<path d="M 2955, 1290c -2,2 -3,3 -5,5z" class="c8"/>
<path d="M 2955, 2360c -2,2 -3,3 -5,5z" class="c4"/>
<path d="M 2955, 2640c -2,2 -3,3 -5,5z" class="c3"/>
<path d="M 2965, 1020c -2,2 -3,3 -5,5z" class="c6"/>
<path d="M 2965, 1290c -2,2 -3,3 -5,5z" class="c4"/>
<path d="M 2965, 2350c -2,2 -3,3 -5,5z" class="c6"/>
<path d="M 2965, 2640c -2,2 -3,3 -5,5z" class="c7"/>
<path d="M 2975, 1030c -2,2 -3,3 -5,5z" class="c4"/>
<path d="M 2975, 1300c -2,2 -3,3 -5,5z" class="c6"/>
<path d="M 2975, 2340c -2,2 -3,3 -5,5z" class="c8"/>
<path d="M 2975, 2630c -2,2 -3,3 -5,5z" class="c24"/>
<path d="M 2985, 1030c -2,2 -3,3 -5,5z" class="c8"/>
<path d="M 2985, 1310c -2,2 -3,3 -5,5z" class="c8"/>
<path d="M 2985, 1920c 14,0 81,-9 90,0c 1,1 -20,5 -95,5z" class="c8"/>
<path d="M 2985, 2340c -2,2 -3,3 -5,5z" class="c4"/>
<path d="M 2985, 2620c -2,2 -3,3 -5,5z" class="c4"/>
<path d="M 2995, 590c 117,0 518,-2 520,0c 1,1 -58,5 -65,5c -153,0 -307,0 -460,0z" class="c2"/>
<path d="M 2995, 1040c -2,2 -3,3 -5,5z" class="c6"/>
<path d="M 2995, 1310c -2,2 -3,3 -5,5z" class="c4"/>
<path d="M 2995, 2330c -2,2 -3,3 -5,5z" class="c6"/>
<path d="M 2995, 2620c -2,2 -3,3 -5,5z" class="c8"/>
<path d="M 3005, 1050c -2,2 -3,3 -5,5z" class="c5"/>
<path d="M 3005, 1320c -2,2 -3,3 -5,5z" class="c5"/>
<path d="M 3005, 2320c -2,2 -3,3 -5,5z" class="c8"/>
<path d="M 3005, 2610c -2,2 -3,3 -5,5z" class="c24"/>
<path d="M 3015, 1050c -2,2 -3,3 -5,5z" class="c8"/>
<path d="M 3015, 1060c -2,2 -3,3 -5,5z" class="c2"/>
<path d="M 3015, 1330c -2,2 -3,3 -5,5z" class="c7"/>
<path d="M 3015, 1760c -2,2 -3,3 -5,5z" class="c17"/>
<path d="M 3015, 2320c -2,2 -3,3 -5,5z" class="c3"/>
<path d="M 3015, 2600c -2,2 -3,3 -5,5z" class="c4"/>
<path d="M 3025, 1060c -2,2 -3,3 -5,5z" class="c7"/>
<path d="M 3025, 1330c -2,2 -3,3 -5,5z" class="c3"/>
<path d="M 3025, 1760c 117,0 56,5 -5,5z" class="c16"/>
<path d="M 3025, 2310c -2,2 -3,3 -5,5z" class="c6"/>
<path d="M 3025, 2590c -2,2 -3,3 -5,5z" class="c2"/>
<path d="M 3025, 2600c -2,2 -3,3 -5,5z" class="c8"/>
<path d="M 3035, 1070c -2,2 -3,3 -5,5z" class="c5"/>
<path d="M 3035, 1340c -2,2 -3,3 -5,5z" class="c5"/>
<path d="M 3035, 2300c -2,2 -3,3 -5,5z" class="c7"/>
<path d="M 3035, 2590c -2,2 -3,3 -5,5z" class="c6"/>
<path d="M 3045, 1080c -2,2 -3,3 -5,5z" class="c3"/>
<path d="M 3045, 1350c -2,2 -3,3 -5,5z" class="c6"/>
<path d="M 3045, 2300c -2,2 -3,3 -5,5z" class="c3"/>
<path d="M 3045, 2580c -2,2 -3,3 -5,5z" class="c4"/>
<path d="M 3055, 1080c -2,2 -3,3 -5,5z" class="c7"/>
<path d="M 3055, 1350c -2,2 -3,3 -5,5z" class="c2"/>
<path d="M 3055, 1360c -2,2 -3,3 -5,5z" class="c8"/>
<path d="M 3055, 2290c -2,2 -3,3 -5,5z" class="c5"/>
<path d="M 3055, 2570c -2,2 -3,3 -5,5z" class="c2"/>
<path d="M 3055, 2580c -2,2 -3,3 -5,5z" class="c8"/>
<path d="M 3065, 1090c -2,2 -3,3 -5,5z" class="c5"/>
<path d="M 3065, 1360c -2,2 -3,3 -5,5z" class="c4"/>
<path d="M 3065, 2280c -2,2 -3,3 -5,5z" class="c7"/>
<path d="M 3065, 2570c -2,2 -3,3 -5,5z" class="c6"/>
<path d="M 3075, 1100c -2,2 -3,3 -5,5z" class="c3"/>
<path d="M 3075, 1370c -2,2 -3,3 -5,5z" class="c6"/>
<path d="M 3075, 2280c -2,2 -3,3 -5,5z" class="c3"/>
<path d="M 3075, 2560c -2,2 -3,3 -5,5z" class="c5"/>
<path d="M 3085, 1100c -2,2 -3,3 -5,5z" class="c8"/>
<path d="M 3085, 1380c -2,2 -3,3 -5,5z" class="c8"/>
<path d="M 3085, 1910c -2,2 -3,3 -5,5z" class="c10"/>
<path d="M 3085, 2270c -2,2 -3,3 -5,5z" class="c5"/>
<path d="M 3085, 2550c -2,2 -3,3 -5,5z" class="c2"/>
<path d="M 3085, 2560c -2,2 -3,3 -5,5z" class="c8"/>
<path d="M 3095, 1110c -2,2 -3,3 -5,5z" class="c6"/>
<path d="M 3095, 1380c -2,2 -3,3 -5,5z" class="c4"/>
<path d="M 3095, 1910c 13,0 72,-8 80,0c 4,4 -10,5 -15,5c -23,0 -47,0 -70,0z" class="c11"/>
<path d="M 3095, 2260c -2,2 -3,3 -5,5z" class="c7"/>
<path d="M 3095, 2550c -2,2 -3,3 -5,5z" class="c7"/>
<path d="M 3105, 1120c -2,2 -3,3 -5,5z" class="c4"/>
<path d="M 3105, 1390c -2,2 -3,3 -5,5z" class="c5"/>
<path d="M 3105, 1760c -2,2 -3,3 -5,5z" class="c17"/>
<path d="M 3105, 2260c -2,2 -3,3 -5,5z" class="c3"/>
<path d="M 3105, 2540c -2,2 -3,3 -5,5z" class="c5"/>
<path d="M 3115, 1120c -2,2 -3,3 -5,5z" class="c8"/>
<path d="M 3115, 1130c -2,2 -3,3 -5,5z" class="c2"/>
<path d="M 3115, 1400c -2,2 -3,3 -5,5z" class="c7"/>
<path d="M 3115, 1760c -2,2 -3,3 -5,5z" class="c15"/>
<path d="M 3115, 2250c -2,2 -3,3 -5,5z" class="c5"/>
<path d="M 3115, 2530c -2,2 -3,3 -5,5z" class="c3"/>
<path d="M 3125, 1130c -2,2 -3,3 -5,5z" class="c6"/>
<path d="M 3125, 1400c -2,2 -3,3 -5,5z" class="c3"/>
<path d="M 3125, 1760c 14,0 81,-9 90,0c 1,1 -20,5 -95,5z" class="c13"/>
<path d="M 3125, 2240c -2,2 -3,3 -5,5z" class="c7"/>
<path d="M 3125, 2530c -2,2 -3,3 -5,5z" class="c7"/>
<path d="M 3135, 1140c -2,2 -3,3 -5,5z" class="c4"/>
<path d="M 3135, 1410c -2,2 -3,3 -5,5z" class="c5"/>
<path d="M 3135, 2240c -2,2 -3,3 -5,5z" class="c3"/>
<path d="M 3135, 2520c -2,2 -3,3 -5,5z" class="c5"/>
<path d="M 3145, 1140c -2,2 -3,3 -5,5z" class="c8"/>
<path d="M 3145, 1150c -2,2 -3,3 -5,5z" class="c2"/>
<path d="M 3145, 1420c -2,2 -3,3 -5,5z" class="c6"/>
<path d="M 3145, 2230c -2,2 -3,3 -5,5z" class="c5"/>
<path d="M 3145, 2510c -2,2 -3,3 -5,5z" class="c3"/>
<path d="M 3155, 1150c -2,2 -3,3 -5,5z" class="c6"/>
<path d="M 3155, 1420c -2,2 -3,3 -5,5z" class="c2"/>
<path d="M 3155, 1430c -2,2 -3,3 -5,5z" class="c8"/>
<path d="M 3155, 2220c -2,2 -3,3 -5,5z" class="c7"/>
<path d="M 3155, 2510c -2,2 -3,3 -5,5z" class="c7"/>
<path d="M 3165, 1160c -2,2 -3,3 -5,5z" class="c5"/>
<path d="M 3165, 1430c -2,2 -3,3 -5,5z" class="c4"/>
<path d="M 3165, 2220c -2,2 -3,3 -5,5z" class="c3"/>
<path d="M 3165, 2500c -2,2 -3,3 -5,5z" class="c6"/>
<path d="M 3175, 1170c -2,2 -3,3 -5,5z" class="c3"/>
<path d="M 3175, 1440c -2,2 -3,3 -5,5z" class="c6"/>
<path d="M 3175, 2210c -2,2 -3,3 -5,5z" class="c5"/>
<path d="M 3175, 2490c -2,2 -3,3 -5,5z" class="c4"/>
<path d="M 3185, 1170c -2,2 -3,3 -5,5z" class="c7"/>
<path d="M 3185, 1450c -2,2 -3,3 -5,5z" class="c8"/>
<path d="M 3185, 1910c -2,2 -3,3 -5,5z" class="c12"/>
<path d="M 3185, 2200c -2,2 -3,3 -5,5z" class="c7"/>
<path d="M 3185, 2480c -2,2 -3,3 -5,5z" class="c2"/>
<path d="M 3185, 2490c -2,2 -3,3 -5,5z" class="c8"/>
<path d="M 3195, 1180c -2,2 -3,3 -5,5z" class="c5"/>
<path d="M 3195, 1450c -2,2 -3,3 -5,5z" class="c3"/>
<path d="M 3195, 1910c 14,0 81,-9 90,0c 1,1 -20,5 -95,5z" class="c13"/>
<path d="M 3195, 2190c -2,2 -3,3 -5,5z" class="c8"/>
<path d="M 3195, 2200c -2,2 -3,3 -5,5z" class="c2"/>
<path d="M 3195, 2480c -2,2 -3,3 -5,5z" class="c6"/>
<path d="M 3205, 1190c -2,2 -3,3 -5,5z" class="c3"/>
<path d="M 3205, 1460c -2,2 -3,3 -5,5z" class="c5"/>
<path d="M 3205, 2190c -2,2 -3,3 -5,5z" class="c5"/>
<path d="M 3205, 2470c -2,2 -3,3 -5,5z" class="c4"/>
<path d="M 3215, 870c 117,0 518,-2 520,0c 1,1 -58,5 -65,5c -153,0 -307,0 -460,0z" class="c7"/>
<path d="M 3215, 1190c -2,2 -3,3 -5,5z" class="c7"/>
<path d="M 3215, 1470c -2,2 -3,3 -5,5z" class="c7"/>
<path d="M 3215, 2180c -2,2 -3,3 -5,5z" class="c6"/>
<path d="M 3215, 2460c -2,2 -3,3 -5,5z" class="c2"/>
<path d="M 3215, 2470c -2,2 -3,3 -5,5z" class="c8"/>
<path d="M 3225, 1200c -2,2 -3,3 -5,5z" class="c6"/>
<path d="M 3225, 1470c -2,2 -3,3 -5,5z" class="c3"/>
<path d="M 3225, 1480c -2,2 -3,3 -5,5z" class="c8"/>
<path d="M 3225, 1760c 14,0 81,-9 90,0c 1,1 -20,5 -95,5z" class="c12"/>
<path d="M 3225, 2170c -2,2 -3,3 -5,5z" class="c8"/>
<path d="M 3225, 2180c -2,2 -3,3 -5,5z" class="c2"/>
<path d="M 3225, 2460c -2,2 -3,3 -5,5z" class="c6"/>
<path d="M 3235, 1210c -2,2 -3,3 -5,5z" class="c4"/>
<path d="M 3235, 1480c -2,2 -3,3 -5,5z" class="c5"/>
<path d="M 3235, 2170c -2,2 -3,3 -5,5z" class="c4"/>
<path d="M 3235, 2450c -2,2 -3,3 -5,5z" class="c5"/>
<path d="M 3245, 1210c -2,2 -3,3 -5,5z" class="c8"/>
<path d="M 3245, 1490c -2,2 -3,3 -5,5z" class="c6"/>
<path d="M 3245, 2160c -2,2 -3,3 -5,5z" class="c6"/>
<path d="M 3245, 2440c -2,2 -3,3 -5,5z" class="c2"/>
<path d="M 3245, 2450c -2,2 -3,3 -5,5z" class="c8"/>
<path d="M 3255, 1220c -2,2 -3,3 -5,5z" class="c6"/>
<path d="M 3255, 1490c -2,2 -3,3 -5,5z" class="c2"/>
<path d="M 3255, 1500c -2,2 -3,3 -5,5z" class="c8"/>
<path d="M 3255, 2150c -2,2 -3,3 -5,5z" class="c8"/>
<path d="M 3255, 2160c -2,2 -3,3 -5,5z" class="c2"/>
<path d="M 3255, 2440c -2,2 -3,3 -5,5z" class="c7"/>
<path d="M 3265, 1230c -2,2 -3,3 -5,5z" class="c4"/>
<path d="M 3265, 1500c -2,2 -3,3 -5,5z" class="c4"/>
<path d="M 3265, 2150c -2,2 -3,3 -5,5z" class="c4"/>
<path d="M 3265, 2430c -2,2 -3,3 -5,5z" class="c5"/>
<path d="M 3275, 1230c -2,2 -3,3 -5,5z" class="c8"/>
<path d="M 3275, 1240c -2,2 -3,3 -5,5z" class="c2"/>
<path d="M 3275, 1510c -2,2 -3,3 -5,5z" class="c6"/>
<path d="M 3275, 2140c -2,2 -3,3 -5,5z" class="c6"/>
<path d="M 3275, 2420c -2,2 -3,3 -5,5z" class="c3"/>
<path d="M 3275, 2800c -2,2 -3,3 -5,5z" class="c24"/>
<path d="M 3285, 1240c -2,2 -3,3 -5,5z" class="c6"/>
<path d="M 3285, 1520c -2,2 -3,3 -5,5z" class="c7"/>
<path d="M 3285, 2130c -2,2 -3,3 -5,5z" class="c8"/>
<path d="M 3285, 2420c -2,2 -3,3 -5,5z" class="c7"/>
<path d="M 3285, 2800c 127,0 506,-4 510,0c 1,1 -58,5 -65,5c -150,0 -300,0 -450,0z" class="c6"/>
<path d="M 3295, 1250c -2,2 -3,3 -5,5z" class="c5"/>
<path d="M 3295, 1520c -2,2 -3,3 -5,5z" class="c3"/>
<path d="M 3295, 1910c 14,0 81,-9 90,0c 1,1 -20,5 -95,5z" class="c14"/>
<path d="M 3295, 2130c -2,2 -3,3 -5,5z" class="c4"/>
<path d="M 3295, 2410c -2,2 -3,3 -5,5z" class="c5"/>
<path d="M 3305, 1260c -2,2 -3,3 -5,5z" class="c2"/>
<path d="M 3305, 1530c -2,2 -3,3 -5,5z" class="c5"/>
<path d="M 3305, 2120c -2,2 -3,3 -5,5z" class="c6"/>
<path d="M 3305, 2400c -2,2 -3,3 -5,5z" class="c3"/>
<path d="M 3315, 1260c -2,2 -3,3 -5,5z" class="c7"/>
<path d="M 3315, 1540c -2,2 -3,3 -5,5z" class="c7"/>
<path d="M 3315, 2110c -2,2 -3,3 -5,5z" class="c8"/>
<path d="M 3315, 2400c -2,2 -3,3 -5,5z" class="c8"/>
<path d="M 3325, 1270c -2,2 -3,3 -5,5z" class="c5"/>
<path d="M 3325, 1280c 6,13 17,5 20,15c 11,34 0,121 0,160c 0,16 10,90 0,100c -2,2 -24,-21 -25,-25c -10,-31 0,-195 0,-240z" class="c20"/>
<path d="M 3325, 1540c -2,2 -3,3 -5,5z" class="c21"/>
<path d="M 3325, 1550c -2,2 -3,3 -5,5z" class="c8"/>
<path d="M 3325, 1760c 14,0 81,-9 90,0c 1,1 -20,5 -95,5z" class="c11"/>
<path d="M 3325, 2110c -2,2 -3,3 -5,5z" class="c4"/>
<path d="M 3325, 2390c -2,2 -3,3 -5,5z" class="c24"/>
<path d="M 3335, 1280c -2,2 -3,3 -5,5z" class="c21"/>
<path d="M 3335, 1550c -2,2 -3,3 -5,5z" class="c14"/>
<path d="M 3335, 2100c -2,2 -3,3 -5,5z" class="c24"/>
<path d="M 3335, 2110c 3,-6 15,-20 20,-5c 10,30 -14,129 0,150c 2,3 8,2 10,5c 10,16 3,92 -10,105c -4,4 -11,14 -15,10c -4,-4 5,-139 0,-160c -18,-72 5,31 -10,-15c -7,-21 0,-57 0,-80z" class="c20"/>
<path d="M 3335, 2380c -2,2 -3,3 -5,5z" class="c4"/>
<path d="M 3345, 1280c -2,2 -3,3 -5,5z" class="c18"/>
<path d="M 3345, 1560c -2,2 -3,3 -5,5z" class="c24"/>
<path d="M 3345, 2090c -2,2 -3,3 -5,5z" class="c7"/>
<path d="M 3345, 2380c -2,2 -3,3 -5,5z" class="c8"/>
<path d="M 3345, 3070c -2,2 -3,3 -5,5z" class="c3"/>
<path d="M 3355, 1290c -2,2 -3,3 -5,5z" class="c23"/>
<path d="M 3355, 1300c 6,13 17,5 20,15c 11,34 0,121 0,160c 0,14 9,81 0,90c -2,2 -7,0 -10,0c -5,0 -13,2 -15,-5c -11,-33 0,-203 0,-250z" class="c19"/>
<path d="M 3355, 1570c -2,2 -3,3 -5,5z" class="c7"/>
<path d="M 3355, 2090c -2,2 -3,3 -5,5z" class="c21"/>
<path d="M 3355, 2370c -2,2 -3,3 -5,5z" class="c24"/>
<path d="M 3365, 1300c -2,2 -3,3 -5,5z" class="c11"/>
<path d="M 3365, 1570c -2,2 -3,3 -5,5z" class="c21"/>
<path d="M 3365, 2080c -2,2 -3,3 -5,5z" class="c23"/>
<path d="M 3365, 2090c 5,-9 12,-12 20,0c 11,16 -19,31 -10,45c 2,3 8,2 10,5c 3,5 -9,9 -10,15c -4,17 0,42 0,60c 0,25 -1,18 10,35c 10,15 1,94 -10,105c -2,2 -5,-50 -5,-55c 0,-37 5,-22 -10,-45c -7,-10 0,-138 0,-160z" class="c19"/>
<path d="M 3365, 2360c -2,2 -3,3 -5,5z" class="c22"/>
<path d="M 3375, 1300c -2,2 -3,3 -5,5z" class="c18"/>
<path d="M 3375, 1580c -2,2 -3,3 -5,5z" class="c23"/>
<path d="M 3375, 2070c -2,2 -3,3 -5,5z" class="c18"/>
<path d="M 3375, 2360c -2,2 -3,3 -5,5z" class="c7"/>
<path d="M 3385, 1310c -2,2 -3,3 -5,5z" class="c15"/>
<path d="M 3385, 1590c -2,2 -3,3 -5,5z" class="c18"/>
<path d="M 3385, 2060c -2,2 -3,3 -5,5z" class="c8"/>
<path d="M 3385, 2070c -2,2 -3,3 -5,5z" class="c10"/>
<path d="M 3385, 2350c -2,2 -3,3 -5,5z" class="c16"/>
<path d="M 3395, 1320c -2,2 -3,3 -5,5z" class="c11"/>
<path d="M 3395, 1590c -2,2 -3,3 -5,5z" class="c10"/>
<path d="M 3395, 1600c -2,2 -3,3 -5,5z" class="c8"/>
<path d="M 3395, 1910c -2,2 -3,3 -5,5z" class="c23"/>
<path d="M 3395, 2060c -2,2 -3,3 -5,5z" class="c14"/>
<path d="M 3395, 2340c -2,2 -3,3 -5,5z" class="c12"/>
<path d="M 3405, 1320c -2,2 -3,3 -5,5z" class="c7"/>
<path d="M 3405, 1600c -2,2 -3,3 -5,5z" class="c13"/>
<path d="M 3405, 1910c 13,0 72,-8 80,0c 4,4 -10,5 -15,5c -23,0 -47,0 -70,0z" class="c15"/>
<path d="M 3405, 2050c -2,2 -3,3 -5,5z" class="c18"/>
<path d="M 3405, 2340c -2,2 -3,3 -5,5z" class="c8"/>
<path d="M 3415, 1330c -2,2 -3,3 -5,5z" class="c16"/>
<path d="M 3415, 1610c -2,2 -3,3 -5,5z" class="c17"/>
<path d="M 3415, 2040c -2,2 -3,3 -5,5z" class="c8"/>
<path d="M 3415, 2050c -2,2 -3,3 -5,5z" class="c10"/>
<path d="M 3415, 2330c -2,2 -3,3 -5,5z" class="c24"/>
<path d="M 3425, 1340c -2,2 -3,3 -5,5z" class="c13"/>
<path d="M 3425, 1610c -2,2 -3,3 -5,5z" class="c19"/>
<path d="M 3425, 1620c -2,2 -3,3 -5,5z" class="c8"/>
<path d="M 3425, 1760c -2,2 -3,3 -5,5z" class="c10"/>
<path d="M 3425, 2040c -2,2 -3,3 -5,5z" class="c14"/>
<path d="M 3425, 2320c -2,2 -3,3 -5,5z" class="c13"/>
<path d="M 3435, 1340c -2,2 -3,3 -5,5z" class="c8"/>
<path d="M 3435, 1620c -2,2 -3,3 -5,5z" class="c13"/>
<path d="M 3435, 1750c 14,0 81,-9 90,0c 1,1 -20,5 -95,5z" class="c8"/>
<path d="M 3435, 2030c -2,2 -3,3 -5,5z" class="c17"/>
<path d="M 3435, 2310c -2,2 -3,3 -5,5z" class="c19"/>
<path d="M 3435, 2320c -2,2 -3,3 -5,5z" class="c8"/>
<path d="M 3445, 1350c -2,2 -3,3 -5,5z" class="c17"/>
<path d="M 3445, 1630c -2,2 -3,3 -5,5z" class="c15"/>
<path d="M 3445, 2020c -2,2 -3,3 -5,5z" class="c8"/>
<path d="M 3445, 2030c -2,2 -3,3 -5,5z" class="c19"/>
<path d="M 3445, 2310c -2,2 -3,3 -5,5z" class="c17"/>
<path d="M 3455, 1360c -2,2 -3,3 -5,5z" class="c14"/>
<path d="M 3455, 1640c -2,2 -3,3 -5,5z" class="c7"/>
<path d="M 3455, 2020c -2,2 -3,3 -5,5z" class="c13"/>
<path d="M 3455, 2300c -2,2 -3,3 -5,5z" class="c13"/>
<path d="M 3465, 1360c -2,2 -3,3 -5,5z" class="c8"/>
<path d="M 3465, 1370c -2,2 -3,3 -5,5z" class="c10"/>
<path d="M 3465, 1640c -2,2 -3,3 -5,5z" class="c11"/>
<path d="M 3465, 2010c -2,2 -3,3 -5,5z" class="c17"/>
<path d="M 3465, 2290c -2,2 -3,3 -5,5z" class="c10"/>
<path d="M 3465, 2300c -2,2 -3,3 -5,5z" class="c8"/>
<path d="M 3475, 1370c -2,2 -3,3 -5,5z" class="c18"/>
<path d="M 3475, 1650c -2,2 -3,3 -5,5z" class="c23"/>
<path d="M 3475, 2000c -2,2 -3,3 -5,5z" class="c8"/>
<path d="M 3475, 2010c -2,2 -3,3 -5,5z" class="c10"/>
<path d="M 3475, 2290c -2,2 -3,3 -5,5z" class="c18"/>
<path d="M 3485, 1380c -2,2 -3,3 -5,5z" class="c14"/>
<path d="M 3485, 1660c -2,2 -3,3 -5,5z" class="c18"/>
<path d="M 3485, 2000c -2,2 -3,3 -5,5z" class="c13"/>
<path d="M 3485, 2280c -2,2 -3,3 -5,5z" class="c14"/>
<path d="M 3495, 1390c -2,2 -3,3 -5,5z" class="c10"/>
<path d="M 3495, 1660c -2,2 -3,3 -5,5z" class="c10"/>
<path d="M 3495, 1670c -2,2 -3,3 -5,5z" class="c8"/>
<path d="M 3495, 1910c -2,2 -3,3 -5,5z" class="c16"/>
<path d="M 3495, 1990c -2,2 -3,3 -5,5z" class="c17"/>
<path d="M 3495, 2270c -2,2 -3,3 -5,5z" class="c10"/>
<path d="M 3505, 1390c -2,2 -3,3 -5,5z" class="c7"/>
<path d="M 3505, 1670c -2,2 -3,3 -5,5z" class="c13"/>
<path d="M 3505, 1910c 16,0 90,-10 100,0c 4,4 -10,5 -15,5c -30,0 -60,0 -90,0z" class="c18"/>
<path d="M 3505, 1980c -2,2 -3,3 -5,5z" class="c8"/>
<path d="M 3505, 2270c -2,2 -3,3 -5,5z" class="c18"/>
<path d="M 3515, 1400c -2,2 -3,3 -5,5z" class="c23"/>
<path d="M 3515, 1680c -2,2 -3,3 -5,5z" class="c17"/>
<path d="M 3515, 1760c -2,2 -3,3 -5,5z" class="c10"/>
<path d="M 3515, 1980c -2,2 -3,3 -5,5z" class="c13"/>
<path d="M 3515, 2260c -2,2 -3,3 -5,5z" class="c15"/>
<path d="M 3525, 590c 127,0 506,-4 510,0c 1,1 -58,5 -65,5c -150,0 -300,0 -450,0z" class="c3"/>
<path d="M 3525, 1410c -2,2 -3,3 -5,5z" class="c11"/>
<path d="M 3525, 1690c -2,2 -3,3 -5,5z" class="c8"/>
<path d="M 3525, 1970c -2,2 -3,3 -5,5z" class="c17"/>
<path d="M 3525, 2250c -2,2 -3,3 -5,5z" class="c11"/>
<path d="M 3535, 1410c -2,2 -3,3 -5,5z" class="c7"/>
<path d="M 3535, 1690c -2,2 -3,3 -5,5z" class="c12"/>
<path d="M 3535, 1750c 117,0 56,5 -5,5z" class="c18"/>
<path d="M 3535, 1960c -2,2 -3,3 -5,5z" class="c8"/>
<path d="M 3535, 2250c -2,2 -3,3 -5,5z" class="c7"/>
<path d="M 3545, 1420c -2,2 -3,3 -5,5z" class="c16"/>
<path d="M 3545, 1700c -2,2 -3,3 -5,5z" class="c15"/>
<path d="M 3545, 1960c -2,2 -3,3 -5,5z" class="c12"/>
<path d="M 3545, 2240c -2,2 -3,3 -5,5z" class="c15"/>
<path d="M 3555, 1430c -2,2 -3,3 -5,5z" class="c13"/>
<path d="M 3555, 1710c -2,2 -3,3 -5,5z" class="c7"/>
<path d="M 3555, 1950c -2,2 -3,3 -5,5z" class="c16"/>
<path d="M 3555, 2230c -2,2 -3,3 -5,5z" class="c13"/>
<path d="M 3565, 1430c -2,2 -3,3 -5,5z" class="c8"/>
<path d="M 3565, 1710c -2,2 -3,3 -5,5z" class="c11"/>
<path d="M 3565, 1940c -2,2 -3,3 -5,5z" class="c8"/>
<path d="M 3565, 2230c -2,2 -3,3 -5,5z" class="c8"/>
<path d="M 3575, 1440c -2,2 -3,3 -5,5z" class="c17"/>
<path d="M 3575, 1720c -2,2 -3,3 -5,5z" class="c23"/>
<path d="M 3575, 1940c -2,2 -3,3 -5,5z" class="c12"/>
<path d="M 3575, 2220c -2,2 -3,3 -5,5z" class="c16"/>
<path d="M 3585, 1450c -2,2 -3,3 -5,5z" class="c14"/>
<path d="M 3585, 1730c -2,2 -3,3 -5,5z" class="c18"/>
<path d="M 3585, 1930c -2,2 -3,3 -5,5z" class="c16"/>
<path d="M 3585, 2210c -2,2 -3,3 -5,5z" class="c13"/>
<path d="M 3595, 1450c -2,2 -3,3 -5,5z" class="c8"/>
<path d="M 3595, 1460c -2,2 -3,3 -5,5z" class="c10"/>
<path d="M 3595, 1730c -2,2 -3,3 -5,5z" class="c11"/>
<path d="M 3595, 1920c -2,2 -3,3 -5,5z" class="c8"/>
<path d="M 3595, 2210c -2,2 -3,3 -5,5z" class="c8"/>
<path d="M 3605, 1460c -2,2 -3,3 -5,5z" class="c18"/>
<path d="M 3605, 1740c -2,2 -3,3 -5,5z" class="c16"/>
<path d="M 3605, 1920c 6,-13 13,-13 -5,5z" class="c13"/>
<path d="M 3605, 2200c -2,2 -3,3 -5,5z" class="c17"/>
<path d="M 3615, 1470c -2,2 -3,3 -5,5z" class="c14"/>
<path d="M 3615, 1740c -2,2 -3,3 -5,5z" class="c10"/>
<path d="M 3615, 1750c -2,2 -3,3 -5,5z" class="c14"/>
<path d="M 3615, 2190c -2,2 -3,3 -5,5z" class="c14"/>
<path d="M 3625, 1480c -2,2 -3,3 -5,5z" class="c10"/>
<path d="M 3625, 2180c -2,2 -3,3 -5,5z" class="c10"/>
<path d="M 3625, 2190c -2,2 -3,3 -5,5z" class="c8"/>
<path d="M 3635, 1480c -2,2 -3,3 -5,5z" class="c18"/>
<path d="M 3635, 2180c -2,2 -3,3 -5,5z" class="c18"/>
<path d="M 3645, 1490c -2,2 -3,3 -5,5z" class="c15"/>
<path d="M 3645, 2170c -2,2 -3,3 -5,5z" class="c14"/>
<path d="M 3655, 1500c -2,2 -3,3 -5,5z" class="c11"/>
<path d="M 3655, 2160c -2,2 -3,3 -5,5z" class="c11"/>
<path d="M 3665, 1500c -2,2 -3,3 -5,5z" class="c7"/>
<path d="M 3665, 2160c -2,2 -3,3 -5,5z" class="c18"/>
<path d="M 3675, 1510c -2,2 -3,3 -5,5z" class="c16"/>
<path d="M 3675, 2150c -2,2 -3,3 -5,5z" class="c23"/>
<path d="M 3685, 1520c -2,2 -3,3 -5,5z" class="c13"/>
<path d="M 3685, 2140c -2,2 -3,3 -5,5z" class="c11"/>
<path d="M 3695, 1520c -2,2 -3,3 -5,5z" class="c8"/>
<path d="M 3695, 2140c -2,2 -3,3 -5,5z" class="c7"/>
<path d="M 3705, 1530c -2,2 -3,3 -5,5z" class="c17"/>
<path d="M 3705, 2130c -2,2 -3,3 -5,5z" class="c15"/>
<path d="M 3715, 1540c -2,2 -3,3 -5,5z" class="c13"/>
<path d="M 3715, 2120c -2,2 -3,3 -5,5z" class="c12"/>
<path d="M 3725, 1540c -2,2 -3,3 -5,5z" class="c8"/>
<path d="M 3725, 1550c -2,2 -3,3 -5,5z" class="c10"/>
<path d="M 3725, 2120c -2,2 -3,3 -5,5z" class="c7"/>
<path d="M 3735, 1550c -2,2 -3,3 -5,5z" class="c18"/>
<path d="M 3735, 2110c -2,2 -3,3 -5,5z" class="c24"/>
<path d="M 3745, 870c 83,0 286,-4 290,0c 4,4 -33,5 -35,5c -87,0 -173,0 -260,0z" class="c6"/>
<path d="M 3745, 1560c -2,2 -3,3 -5,5z" class="c14"/>
<path d="M 3745, 2100c -2,2 -3,3 -5,5z" class="c13"/>
<path d="M 3755, 1570c -2,2 -3,3 -5,5z" class="c10"/>
<path d="M 3755, 2090c -2,2 -3,3 -5,5z" class="c19"/>
<path d="M 3755, 2100c -2,2 -3,3 -5,5z" class="c8"/>
<path d="M 3765, 1570c -2,2 -3,3 -5,5z" class="c18"/>
<path d="M 3765, 2090c -2,2 -3,3 -5,5z" class="c17"/>
<path d="M 3775, 1580c -2,2 -3,3 -5,5z" class="c23"/>
<path d="M 3775, 2080c -2,2 -3,3 -5,5z" class="c14"/>
<path d="M 3785, 1590c -2,2 -3,3 -5,5z" class="c11"/>
<path d="M 3785, 2070c -2,2 -3,3 -5,5z" class="c10"/>
<path d="M 3785, 2080c -2,2 -3,3 -5,5z" class="c8"/>
<path d="M 3795, 1590c -2,2 -3,3 -5,5z" class="c7"/>
<path d="M 3795, 2070c -2,2 -3,3 -5,5z" class="c18"/>
<path d="M 3805, 1600c -2,2 -3,3 -5,5z" class="c16"/>
<path d="M 3805, 2060c -2,2 -3,3 -5,5z" class="c14"/>
<path d="M 3805, 2800c 56,0 215,-5 220,0c 5,5 -25,5 -25,5c -67,0 -133,0 -200,0z" class="c7"/>
<path d="M 3815, 1610c -2,2 -3,3 -5,5z" class="c12"/>
<path d="M 3815, 2050c -2,2 -3,3 -5,5z" class="c10"/>
<path d="M 3815, 2060c -2,2 -3,3 -5,5z" class="c8"/>
<path d="M 3825, 1610c -2,2 -3,3 -5,5z" class="c8"/>
<path d="M 3825, 2050c -2,2 -3,3 -5,5z" class="c18"/>
<path d="M 3835, 1620c -2,2 -3,3 -5,5z" class="c17"/>
<path d="M 3835, 2040c -2,2 -3,3 -5,5z" class="c23"/>
<path d="M 3845, 1630c -2,2 -3,3 -5,5z" class="c13"/>
<path d="M 3845, 2030c -2,2 -3,3 -5,5z" class="c11"/>
<path d="M 3855, 1630c -2,2 -3,3 -5,5z" class="c8"/>
<path d="M 3855, 1640c -2,2 -3,3 -5,5z" class="c19"/>
<path d="M 3855, 2030c -2,2 -3,3 -5,5z" class="c7"/>
<path d="M 3865, 1640c -2,2 -3,3 -5,5z" class="c18"/>
<path d="M 3865, 2020c -2,2 -3,3 -5,5z" class="c15"/>
<path d="M 3875, 1650c -2,2 -3,3 -5,5z" class="c14"/>
<path d="M 3875, 2010c -2,2 -3,3 -5,5z" class="c12"/>
<path d="M 3875, 3080c 36,0 140,-10 150,0c 5,5 -25,5 -25,5c -43,0 -87,0 -130,0z" class="c8"/>
<path d="M 3885, 1660c -2,2 -3,3 -5,5z" class="c10"/>
<path d="M 3885, 2010c -2,2 -3,3 -5,5z" class="c8"/>
<path d="M 3895, 1660c -2,2 -3,3 -5,5z" class="c18"/>
<path d="M 3895, 2000c -2,2 -3,3 -5,5z" class="c16"/>
<path d="M 3905, 1670c -2,2 -3,3 -5,5z" class="c15"/>
<path d="M 3905, 1990c -2,2 -3,3 -5,5z" class="c13"/>
<path d="M 3915, 1680c -2,2 -3,3 -5,5z" class="c11"/>
<path d="M 3915, 1990c -2,2 -3,3 -5,5z" class="c8"/>
<path d="M 3925, 1680c -2,2 -3,3 -5,5z" class="c7"/>
<path d="M 3925, 1980c -2,2 -3,3 -5,5z" class="c24"/>
<path d="M 3935, 1690c -2,2 -3,3 -5,5z" class="c15"/>
<path d="M 3935, 1970c -2,2 -3,3 -5,5z" class="c13"/>
<path d="M 3945, 1700c -2,2 -3,3 -5,5z" class="c12"/>
<path d="M 3945, 1960c -2,2 -3,3 -5,5z" class="c19"/>
<path d="M 3945, 1970c -2,2 -3,3 -5,5z" class="c8"/>
<path d="M 3955, 1700c -2,2 -3,3 -5,5z" class="c8"/>
<path d="M 3955, 1960c -2,2 -3,3 -5,5z" class="c18"/>
<path d="M 3965, 1710c -2,2 -3,3 -5,5z" class="c24"/>
<path d="M 3965, 1950c -2,2 -3,3 -5,5z" class="c14"/>
<path d="M 3975, 1720c -2,2 -3,3 -5,5z" class="c13"/>
<path d="M 3975, 1940c -2,2 -3,3 -5,5z" class="c10"/>
<path d="M 3975, 1950c -2,2 -3,3 -5,5z" class="c8"/>
<path d="M 3985, 1720c -2,2 -3,3 -5,5z" class="c8"/>
<path d="M 3985, 1730c -2,2 -3,3 -5,5z" class="c10"/>
<path d="M 3985, 1940c -2,2 -3,3 -5,5z" class="c18"/>
<path d="M 3995, 1730c -2,2 -3,3 -5,5z" class="c17"/>
<path d="M 3995, 1930c -2,2 -3,3 -5,5z" class="c14"/>
<path d="M 4005, 1740c -2,2 -3,3 -5,5z" class="c14"/>
<path d="M 4005, 1920c -2,2 -3,3 -5,5z" class="c10"/>
<path d="M 4015, 1740c -2,2 -3,3 -5,5z" class="c8"/>
<path d="M 4015, 1750c -2,2 -3,3 -5,5z" class="c10"/>
<path d="M 4015, 1920c -2,2 -3,3 -5,5z" class="c18"/>
<path d="M 4025, 1750c -2,2 -3,3 -5,5z" class="c17"/>
<path d="M 4025, 1910c -2,2 -3,3 -5,5z" class="c13"/>
<path d="M 4035, 1760c -2,2 -3,3 -5,5z" class="c13"/>
<path d="M 4035, 1910c -2,2 -3,3 -5,5z" class="c8"/>
<path d="M 4035, 2800c -2,2 -3,3 -5,5z" class="c8"/>
<path d="M 4035, 2810c 0,77 0,153 0,230c 0,2 -1,39 -5,35c -1,-1 0,-203 0,-260z" class="c6"/>
<path d="M 4045, 1760c -2,2 -3,3 -5,5z" class="c8"/>
<path d="M 4045, 1770c -2,2 -3,3 -5,5z" class="c12"/>
<path d="M 4045, 1900c -2,2 -3,3 -5,5z" class="c16"/>
<path d="M 4055, 1770c -2,2 -3,3 -5,5z" class="c18"/>
<path d="M 4055, 1780c -2,2 -3,3 -5,5z" class="c10"/>
<path d="M 4055, 1890c -2,2 -3,3 -5,5z" class="c13"/>
<path d="M 4065, 1780c -2,2 -3,3 -5,5z" class="c15"/>
<path d="M 4065, 1880c -2,2 -3,3 -5,5z" class="c10"/>
<path d="M 4065, 1890c -2,2 -3,3 -5,5z" class="c8"/>
<path d="M 4075, 1790c -2,2 -3,3 -5,5z" class="c14"/>
<path d="M 4075, 1880c -2,2 -3,3 -5,5z" class="c18"/>
<path d="M 4085, 1790c -2,2 -3,3 -5,5z" class="c8"/>
<path d="M 4085, 1800c -2,2 -3,3 -5,5z" class="c13"/>
<path d="M 4085, 1870c -2,2 -3,3 -5,5z" class="c15"/>
<path d="M 4095, 1800c -2,2 -3,3 -5,5z" class="c7"/>
<path d="M 4095, 1810c -2,2 -3,3 -5,5z" class="c10"/>
<path d="M 4095, 1860c -2,2 -3,3 -5,5z" class="c12"/>
<path d="M 4105, 1810c -2,2 -3,3 -5,5z" class="c17"/>
<path d="M 4105, 1860c -2,2 -3,3 -5,5z" class="c7"/>
<path d="M 4115, 1820c -2,2 -3,3 -5,5z" class="c15"/>
<path d="M 4115, 1850c -2,2 -3,3 -5,5z" class="c15"/>
<path d="M 4125, 1830c 0,6 -5,28 -5,5z" class="c14"/>
</g>
</svg>